# xmcd
#
# Track frame offsets:
#	150
#	13357
#	23917
#	35542
#	51175
#	69562
#	92502
#	112495
#	120352
#	134117
#	142322
#	149030
#	162050
#	166067
#
# Disc length: 2261 seconds
#
# Revision: 2
# Processed by: cddbd v1.5.2PL0 Copyright (c) Steve Scherf et al.
# Submitted via: audiograbber 1.83.01
#
DISCID=d508d30e
DTITLE=Excelsior - Amazing Grace
DYEAR=1996
DGENRE=Scottish Bagpipes
TTITLE0=Caledonian Heritage Pipes and Drums - Amazing Grace
TTITLE1=Bill Garden's Scottish Orchestra - Bannockburn 1314
TTITLE2=Caledonian Heritage Pipes and Drums - Scotland The Brave, Rowan Tree
TTITLE3=Bill Garden's Scottish Orchestra - Mist Covered Mountains Of Home
TTITLE4=Piper Eric Rigler - Solo Pipe Selection
TTITLE5=Bill Garden's Scottish Orchestra - The Castle Walls
TTITLE6=Bill Garden's Scottish Orchestra - Scottish Fantasy
TTITLE7=Piper Stuart Liddell - Solo Dancing
TTITLE8=Tommy Scott's Pipes and Banjo Band - Play The Game
TTITLE9=Tommy Scott's Hop Scotch - Medley: Deil Among The Tailors, High Road To
TTITLE9=Linton, Pigeon At
TTITLE10=Piper Stuart Liddell - Highland Dancing
TTITLE11=Pipes and Drums of Denny and Dunipace - Medley: Scotland The Brave, Rowa
TTITLE11=n Tree, Bonnie Galloway, Old Ru
TTITLE12=Massed Bands - Glendural Highlanders
TTITLE13=Massed Bands - Highland Laddie
EXTD=
EXTT0=
EXTT1=
EXTT2=
EXTT3=
EXTT4=
EXTT5=
EXTT6=
EXTT7=
EXTT8=
EXTT9=
EXTT10=
EXTT11=
EXTT12=
EXTT13=
PLAYORDER=
